<?xml version="1.0" encoding="utf-8"?>
<!-- Generator: Adobe Illustrator 20.1.0, SVG Export Plug-In . SVG Version: 6.00 Build 0)  -->
<svg version="1.1" id="Layer_1" xmlns="http://www.w3.org/2000/svg" xmlns:xlink="http://www.w3.org/1999/xlink" x="0px" y="0px"
	 viewBox="0 0 289.2 191.4" style="enable-background:new 0 0 289.2 191.4;" xml:space="preserve">
<style type="text/css">
	.st0{display:none;}
	.st1{display:inline;fill:none;}
	.st2{display:inline;fill:#068264;}
	.st3{display:inline;fill:#5CBE7E;}
	.st4{fill:none;}
	.st5{fill:#5CBE7E;}
	.st6{fill:#068264;}
</style>
<g id="XMLID_32_" class="st0">
	<path class="st1" d="M373.9,201.1c2.2,2.2,5.7,2.2,7.9,0l0,0c2.2-2.2,2.2-5.7,0-7.9l-3.2-3.2c-2.2-2.2-5.7-2.2-7.9,0l0,0
		c-2.2,2.2-2.2,5.7,0,7.9L373.9,201.1z"/>
	<path class="st1" d="M344.8,172c2.2,2.2,5.7,2.2,7.9,0l0,0c2.2-2.2,2.2-5.7,0-7.9l-3.2-3.2c-2.2-2.2-5.7-2.2-7.9,0l0,0
		c-2.2,2.2-2.2,5.7,0,7.9L344.8,172z"/>
	<path class="st1" d="M306,117.3c-2.2-2.2-5.7-2.2-7.9,0l0,0c-2.2,2.2-2.2,5.7,0,7.9l3.2,3.2c2.2,2.2,5.7,2.2,7.9,0l0,0
		c2.2-2.2,2.2-5.7,0-7.9L306,117.3z"/>
	<path class="st1" d="M359.4,186.6c2.2,2.2,5.7,2.2,7.9,0l0,0c2.2-2.2,2.2-5.7,0-7.9l-3.2-3.2c-2.2-2.2-5.7-2.2-7.9,0l0,0
		c-2.2,2.2-2.2,5.7,0,7.9L359.4,186.6z"/>
	<path class="st1" d="M337.2,229.5c0-5-1.8-9.3-5.4-12.9L228.1,112.9c-3.4-3.4-7.8-5.2-12.9-5.2c-5.2,0-9.5,1.7-12.9,5.2L69.6,245.6
		c-3.6,3.6-5.4,7.9-5.4,12.9c0,5,1.8,9.3,5.4,12.9l37,37H129l-48.9-48.9l136.1-136.1l105.2,105.2l-79.8,79.8H266l66-66
		C335.3,238.8,337.2,234.5,337.2,229.5z"/>
	<path class="st1" d="M291.5,102.8c-2.2-2.2-5.7-2.2-7.9,0l0,0c-2.2,2.2-2.2,5.7,0,7.9l3.2,3.2c2.2,2.2,5.7,2.2,7.9,0l0,0
		c2.2-2.2,2.2-5.7,0-7.9L291.5,102.8z"/>
	<path class="st1" d="M262.5,73.7c-2.2-2.2-5.7-2.2-7.9,0l0,0c-2.2,2.2-2.2,5.7,0,7.9l3.2,3.2c2.2,2.2,5.7,2.2,7.9,0l0,0
		c2.2-2.2,2.2-5.7,0-7.9L262.5,73.7z"/>
	<path class="st1" d="M330.4,157.5c2.2,2.2,5.7,2.2,7.9,0l0,0c2.2-2.2,2.2-5.7,0-7.9l-3.2-3.2c-2.2-2.2-5.7-2.2-7.9,0
		c-2.2,2.2-2.2,5.7,0,7.9L330.4,157.5z"/>
	<path class="st1" d="M276.9,88.2c-2.2-2.2-5.7-2.2-7.9,0l0,0c-2.2,2.2-2.2,5.7,0,7.9l3.2,3.2c2.2,2.2,5.7,2.2,7.9,0l0,0
		c2.2-2.2,2.2-5.7,0-7.9L276.9,88.2z"/>
	<path class="st1" d="M388.4,215.6c2.2,2.2,5.7,2.2,7.9,0l0,0c2.2-2.2,2.2-5.7,0-7.9l-3.2-3.2c-2.2-2.2-5.7-2.2-7.9,0l0,0
		c-2.2,2.2-2.2,5.7,0,7.9L388.4,215.6z"/>
	<path class="st1" d="M243.2,70.4c2.2,2.2,5.7,2.2,7.9,0l0,0c2.2-2.2,2.2-5.7,0-7.9l-3.2-3.2c-2.2-2.2-5.7-2.2-7.9,0l0,0
		c-2.2,2.2-2.2,5.7,0,7.9L243.2,70.4z"/>
	<path class="st1" d="M312.6,131.8L312.6,131.8c-2.2,2.2-2.2,5.7,0,7.9l3.2,3.2c2.2,2.2,5.7,2.2,7.9,0l0,0c2.2-2.2,2.2-5.7,0-7.9
		l-3.2-3.2C318.3,129.6,314.8,129.6,312.6,131.8z"/>
	<path class="st1" d="M228.7,55.9c2.2,2.2,5.7,2.2,7.9,0l0,0c2.2-2.2,2.2-5.7,0-7.9l-3.2-3.2c-2.2-2.2-5.7-2.2-7.9,0l0,0
		c-2.2,2.2-2.2,5.7,0,7.9L228.7,55.9z"/>
	<path class="st1" d="M280.6,64.1c1.2,1.2,3.2,1.2,4.4,0l34.8-34.8c1.2-1.2,1.2-3.2,0-4.4L285-9.9c-1.2-1.2-3.2-1.2-4.4,0
		l-34.8,34.8c-1.2,1.2-1.2,3.2,0,4.4L280.6,64.1z M282.4,2.9l23.8,23.8l-23.8,23.8l-23.8-23.8L282.4,2.9z"/>
	<polygon class="st2" points="321.2,228.6 216,123.4 79.9,259.5 128.8,308.4 241.4,308.4 	"/>
	
		<rect x="265.5" y="9.9" transform="matrix(0.7071 -0.7071 0.7071 0.7071 63.7481 207.4915)" class="st2" width="33.7" height="33.7"/>
	<path class="st3" d="M69.5,271.4c-3.6-3.6-5.4-7.9-5.4-12.9c0-5,1.8-9.3,5.4-12.9l132.7-132.7c3.4-3.4,7.7-5.2,12.9-5.2
		c5.1,0,9.5,1.7,12.9,5.2l103.7,103.7c3.6,3.6,5.4,7.9,5.4,12.9s-1.8,9.3-5.4,12.9l-66,66h72.5l71.5-71.5l-6.7-6.7l-3.2-3.2l0,0
		c-0.4-0.4-0.7-0.9-1-1.4c-0.5-1-0.7-2.1-0.6-3.1c0.1-1.3,0.7-2.5,1.6-3.4l0,0c2.2-2.2,5.7-2.2,7.9,0l3.2,3.2l6.7,6.7l36.4-36.4
		c1.1-1.1,1.2-3,0.2-4.2c-12.8-14.7-12.9-36.8-0.2-51.5c1.1-1.2,1-3.1-0.2-4.2L284.3-36.9c-1.2-1.2-3.2-1.2-4.4,0l-64.1,64l6.3,6.3
		c2.2,2.2,2.2,5.7,0,7.9l0,0c-2.2,2.2-5.7,2.2-7.9,0l-6.3-6.3L5.4,237.4c-1.1,1.1-1.2,3-0.2,4.2c12.7,14.7,12.7,36.6,0,51.3
		c-1.1,1.2-1,3,0.2,4.2l11.2,11.2h89.9L69.5,271.4z M265.7,84.9L265.7,84.9c-2.2,2.2-5.7,2.2-7.9,0l-3.2-3.2c-2.2-2.2-2.2-5.7,0-7.9
		l0,0c2.2-2.2,5.7-2.2,7.9,0l3.2,3.2C267.9,79.2,267.9,82.7,265.7,84.9z M280.2,99.4L280.2,99.4c-2.2,2.2-5.7,2.2-7.9,0l-3.2-3.2
		c-2.2-2.2-2.2-5.7,0-7.9l0,0c2.2-2.2,5.7-2.2,7.9,0l3.2,3.2C282.4,93.6,282.4,97.2,280.2,99.4z M294.7,113.9L294.7,113.9
		c-2.2,2.2-5.7,2.2-7.9,0l-3.2-3.2c-2.2-2.2-2.2-5.7,0-7.9l0,0c2.2-2.2,5.7-2.2,7.9,0l3.2,3.2C296.9,108.2,296.9,111.7,294.7,113.9z
		 M309.3,128.5L309.3,128.5c-2.2,2.2-5.7,2.2-7.9,0l-3.2-3.2c-2.2-2.2-2.2-5.7,0-7.9l0,0c2.2-2.2,5.7-2.2,7.9,0l3.2,3.2
		C311.5,122.7,311.5,126.3,309.3,128.5z M385.2,204.4L385.2,204.4c2.2-2.2,5.7-2.2,7.9,0l3.2,3.2c2.2,2.2,2.2,5.7,0,7.9l0,0
		c-2.2,2.2-5.7,2.2-7.9,0l-3.2-3.2C383,210.2,383,206.6,385.2,204.4z M370.7,189.9L370.7,189.9c2.2-2.2,5.7-2.2,7.9,0l3.2,3.2
		c2.2,2.2,2.2,5.7,0,7.9l0,0c-2.2,2.2-5.7,2.2-7.9,0l-3.2-3.2C368.5,195.7,368.5,192.1,370.7,189.9z M356.2,175.4L356.2,175.4
		c2.2-2.2,5.7-2.2,7.9,0l3.2,3.2c2.2,2.2,2.2,5.7,0,7.9l0,0c-2.2,2.2-5.7,2.2-7.9,0l-3.2-3.2C354,181.1,354,177.6,356.2,175.4z
		 M341.6,160.9L341.6,160.9c2.2-2.2,5.7-2.2,7.9,0l3.2,3.2c2.2,2.2,2.2,5.7,0,7.9l0,0c-2.2,2.2-5.7,2.2-7.9,0l-3.2-3.2
		C339.4,166.6,339.4,163,341.6,160.9z M327.1,146.4c2.2-2.2,5.7-2.2,7.9,0l3.2,3.2c2.2,2.2,2.2,5.7,0,7.9l0,0
		c-2.2,2.2-5.7,2.2-7.9,0l-3.2-3.2C324.9,152.1,324.9,148.6,327.1,146.4z M323.8,143L323.8,143c-2.2,2.2-5.7,2.2-7.9,0l-3.2-3.2
		c-2.2-2.2-2.2-5.7,0-7.9l0,0c2.2-2.2,5.7-2.2,7.9,0l3.2,3.2C325.9,137.2,325.9,140.8,323.8,143z M245.8,24.9l34.8-34.8
		c1.2-1.2,3.2-1.2,4.4,0l34.8,34.8c1.2,1.2,1.2,3.2,0,4.4L285,64.1c-1.2,1.2-3.2,1.2-4.4,0l-34.8-34.9
		C244.6,28,244.6,26.1,245.8,24.9z M240,59.2L240,59.2c2.2-2.2,5.7-2.2,7.9,0l3.2,3.2c2.2,2.2,2.2,5.7,0,7.9l0,0
		c-2.2,2.2-5.7,2.2-7.9,0l-3.2-3.2C237.8,64.9,237.8,61.4,240,59.2z M225.5,44.7L225.5,44.7c2.2-2.2,5.7-2.2,7.9,0l3.2,3.2
		c2.2,2.2,2.2,5.7,0,7.9l0,0c-2.2,2.2-5.7,2.2-7.9,0l-3.2-3.2C223.3,50.5,223.3,46.9,225.5,44.7z"/>
	<line class="st1" x1="338.2" y1="308.4" x2="265.7" y2="308.4"/>
</g>
<g>
	<g>
		<path class="st4" d="M167.7,73.5l-2.1-2.1c-1.4-1.4-3.7-1.4-5.1,0s-1.4,3.7,0,5.1l2.1,2.1c1.4,1.4,3.7,1.4,5.1,0
			S169.1,74.9,167.7,73.5z"/>
		<path class="st4" d="M156.3,62.2c-1.4-1.4-3.7-1.4-5.1,0s-1.4,3.6,0,5.1l2.1,2.1c1.4,1.4,3.7,1.4,5.1,0c1.4-1.4,1.4-3.7,0-5.1
			L156.3,62.2z"/>
		<path class="st4" d="M174.9,80.7c-1.4-1.4-3.7-1.4-5.1,0s-1.4,3.7,0,5.1l2.1,2.1c1.4,1.4,3.7,1.4,5.1,0s1.4-3.7,0-5.1L174.9,80.7z
			"/>
		<path class="st4" d="M177.3,65.2c0.7,0.7,2.1,0.7,2.8,0l22.3-22.3c0.7-0.7,0.7-2.1,0-2.8l-22.3-22.3c-0.7-0.7-2.1-0.7-2.8,0
			L155,40.1c-0.8,0.8-0.8,2.1,0,2.8L177.3,65.2z"/>
		<path class="st4" d="M184.3,90.1c-1.4-1.4-3.7-1.4-5.1,0s-1.4,3.7,0,5.1l2.1,2.1c1.4,1.4,3.7,1.4,5.1,0s1.4-3.7,0-5.1L184.3,90.1z
			"/>
		<path class="st4" d="M149.1,54.9l-2.1-2.1c-1.4-1.4-3.7-1.4-5.1,0c-1.4,1.4-1.4,3.7,0,5.1L144,60c1.4,1.4,3.7,1.4,5.1,0
			S150.5,56.3,149.1,54.9z"/>
		<path class="st4" d="M212.2,118.1c-1.4-1.4-3.7-1.4-5.1,0s-1.4,3.7,0,5.1l2.1,2.1c1.4,1.4,3.7,1.4,5.1,0s1.4-3.7,0-5.1
			L212.2,118.1z"/>
		<path class="st4" d="M251.7,157.5l-2.1-2.1c-1.4-1.4-3.7-1.4-5.1,0s-1.4,3.7,0,5.1l2.1,2.1c1.4,1.4,3.7,1.4,5.1,0
			C253.1,161.2,253.1,158.9,251.7,157.5z"/>
		<path class="st4" d="M240.3,146.1c-1.4-1.4-3.7-1.4-5.1,0c-1.4,1.4-1.4,3.7,0,5.1l2.1,2.1c1.4,1.4,3.7,1.4,5.1,0s1.4-3.7,0-5.1
			L240.3,146.1z"/>
		<path class="st4" d="M-21.4,191.3H6.2c-0.8-4.3-2.7-8.5-5.7-12c-0.7-0.8-0.6-1.9,0.1-2.7l130-129.9l4.1,4.1c1.4,1.4,3.7,1.4,5.1,0
			s1.4-3.7,0-5.1l-4.1-4.1l41.1-41.1c0.7-0.7,2.1-0.7,2.8,0l108.9,108.9c0.7,0.7,0.8,1.9,0.1,2.7c-8.2,9.4-8.1,23.6,0.1,33.1
			c0.7,0.8,0.6,1.9-0.2,2.7l-23.3,23.3l-4.4-4.4l-2.1-2.1c-1.4-1.4-3.7-1.4-5.1,0c-0.6,0.7-0.9,1.4-1,2.2c-0.1,0.7,0.1,1.3,0.4,2
			c0.2,0.3,0.4,0.6,0.7,0.9l2.1,2.1l4.4,4.4l-15.1,15.1h61.5v-209h-328"/>
		<path class="st4" d="M195.7,101.5l-2.1-2.1c-1.4-1.4-3.7-1.4-5.1,0s-1.4,3.7,0,5.1l2.1,2.1c1.4,1.4,3.7,1.4,5.1,0
			S197.1,102.9,195.7,101.5z"/>
		<path class="st4" d="M230.9,136.8c-1.4-1.4-3.7-1.4-5.1,0c-1.4,1.4-1.4,3.7,0,5.1l2.1,2.1c1.4,1.4,3.7,1.4,5.1,0s1.4-3.7,0-5.1
			L230.9,136.8z"/>
		<path class="st4" d="M202.9,108.8c-1.4-1.4-3.7-1.4-5.1,0s-1.4,3.7,0,5.1l2.1,2.1c1.4,1.4,3.7,1.4,5.1,0s1.4-3.7,0-5.1
			L202.9,108.8z"/>
		<path class="st4" d="M221.6,127.4c-1.4-1.4-3.7-1.4-5.1,0s-1.4,3.7,0,5.1l2.1,2.1c1.4,1.4,3.7,1.4,5.1,0c1.4-1.4,1.4-3.7,0-5.1
			L221.6,127.4z"/>
		<path class="st5" d="M255.9,171.9l-2.1-2.1c-0.3-0.3-0.5-0.5-0.7-0.9c-0.3-0.7-0.5-1.3-0.4-2c0.1-0.8,0.4-1.5,1-2.2
			c1.4-1.4,3.7-1.4,5.1,0l2.1,2.1l4.4,4.4l23.3-23.4c0.8-0.7,0.9-1.9,0.2-2.7c-8.2-9.5-8.3-23.7-0.1-33.1c0.7-0.7,0.6-1.9-0.1-2.7
			L179.6,0.5c-0.7-0.7-2.1-0.7-2.8,0l-41.1,41.1l4.1,4.1c1.4,1.4,1.4,3.7,0,5.1c-1.4,1.4-3.7,1.4-5.1,0l-4.1-4.1L0.6,176.6
			c-0.7,0.7-0.8,1.9-0.1,2.7c3,3.5,4.9,7.7,5.7,12h32.1c0-0.4-0.1-0.7-0.1-1.1c0-3.2,1.2-6,3.5-8.3l85.2-85.2c2.2-2.2,5-3.3,8.3-3.3
			c3.2,0,6.1,1.1,8.3,3.3l66.5,66.5c2.4,2.4,3.5,5,3.5,8.3s-1.2,6-3.6,8.3l-11.6,11.6h46.6l15.1-15.1L255.9,171.9z M155,40.1
			l22.3-22.3c0.7-0.7,2.1-0.7,2.8,0l22.3,22.3c0.7,0.7,0.7,2.1,0,2.8l-22.3,22.3c-0.7,0.7-2.1,0.7-2.8,0L155,42.9
			C154.2,42.1,154.2,40.9,155,40.1z M144,60l-2.1-2.1c-1.4-1.4-1.4-3.7,0-5.1c1.4-1.4,3.7-1.4,5.1,0l2.1,2.1c1.4,1.4,1.4,3.7,0,5.1
			S145.4,61.4,144,60z M158.4,69.4c-1.4,1.4-3.7,1.4-5.1,0l-2.1-2.1c-1.4-1.5-1.4-3.7,0-5.1s3.7-1.4,5.1,0l2.1,2.1
			C159.8,65.7,159.8,68,158.4,69.4z M162.6,78.6l-2.1-2.1c-1.4-1.4-1.4-3.7,0-5.1s3.7-1.4,5.1,0l2.1,2.1c1.4,1.4,1.4,3.7,0,5.1
			S164,80.1,162.6,78.6z M177,87.9c-1.4,1.4-3.7,1.4-5.1,0l-2.1-2.1c-1.4-1.4-1.4-3.7,0-5.1c1.4-1.4,3.7-1.4,5.1,0l2.1,2.1
			C178.4,84.2,178.4,86.5,177,87.9z M186.3,97.3c-1.4,1.4-3.7,1.4-5.1,0l-2.1-2.1c-1.4-1.4-1.4-3.7,0-5.1s3.7-1.4,5.1,0l2.1,2.1
			C187.8,93.6,187.8,95.9,186.3,97.3z M190.6,106.6l-2.1-2.1c-1.4-1.4-1.4-3.7,0-5.1s3.7-1.4,5.1,0l2.1,2.1c1.4,1.4,1.4,3.7,0,5.1
			S192,108,190.6,106.6z M205,115.9c-1.4,1.4-3.7,1.4-5.1,0l-2.1-2.1c-1.4-1.4-1.4-3.7,0-5.1s3.7-1.4,5.1,0l2.1,2.1
			C206.4,112.3,206.4,114.5,205,115.9z M214.3,125.3c-1.4,1.4-3.7,1.4-5.1,0l-2.1-2.1c-1.4-1.4-1.4-3.7,0-5.1s3.7-1.4,5.1,0l2.1,2.1
			C215.7,121.6,215.7,123.9,214.3,125.3z M223.7,134.6c-1.4,1.4-3.7,1.4-5.1,0l-2.1-2.1c-1.4-1.4-1.4-3.7,0-5.1s3.7-1.4,5.1,0
			l2.1,2.1C225.1,130.9,225.1,133.2,223.7,134.6z M233,144c-1.4,1.4-3.7,1.4-5.1,0l-2.1-2.1c-1.4-1.4-1.4-3.7,0-5.1s3.7-1.4,5.1,0
			l2.1,2.1C234.4,140.3,234.4,142.6,233,144z M242.3,153.3c-1.4,1.4-3.7,1.4-5.1,0l-2.1-2.1c-1.4-1.4-1.4-3.7,0-5.1s3.7-1.4,5.1,0
			l2.1,2.1C243.8,149.6,243.8,151.9,242.3,153.3z M246.6,162.6l-2.1-2.1c-1.4-1.4-1.4-3.7,0-5.1s3.7-1.4,5.1,0l2.1,2.1
			c1.4,1.4,1.4,3.7,0,5.1C250.3,164,248,164,246.6,162.6z"/>
	</g>
	<polygon class="st6" points="136.1,103 48.8,190.4 49.4,191 183.3,191 203.6,170.6 	"/>
	
		<rect x="167.9" y="30.4" transform="matrix(0.7071 -0.7071 0.7071 0.7071 23.235 138.4152)" class="st6" width="21.6" height="21.6"/>
</g>
</svg>
