<?xml version="1.0" encoding="utf-8"?>
<!-- Generator: Adobe Illustrator 20.1.0, SVG Export Plug-In . SVG Version: 6.00 Build 0)  -->
<svg version="1.1" id="Layer_1" xmlns="http://www.w3.org/2000/svg" xmlns:xlink="http://www.w3.org/1999/xlink" x="0px" y="0px"
	 viewBox="0 0 21.5 21.5" style="enable-background:new 0 0 21.5 21.5;" xml:space="preserve">
<style type="text/css">
	.st0{fill:#2BB074;}
</style>
<path class="st0" d="M20.6,11.5L10.9,1.4c-0.1-0.1-0.3-0.2-0.5-0.2c-0.2,0-0.4,0.1-0.5,0.2L7.9,3.2C7.8,3.4,7.7,3.6,7.7,3.8
	c0,0.2,0.1,0.4,0.2,0.5C8.1,4.5,8.2,4.7,8.2,5c0,0.6-0.5,1.1-1.1,1.1C6.8,6.1,6.5,6,6.3,5.8c-0.3-0.3-0.7-0.3-1,0L3.4,7.6
	c-0.3,0.3-0.3,0.7,0,1l1.2,1.2H2.8c-0.4,0-0.7,0.3-0.7,0.7v2.7c0,0.4,0.3,0.7,0.7,0.7c0.6,0,1.1,0.5,1.1,1.1c0,0.6-0.5,1.1-1.1,1.1
	c-0.4,0-0.7,0.3-0.7,0.7v2.7c0,0.4,0.3,0.7,0.7,0.7h14c0.4,0,0.7-0.3,0.7-0.7v-2.7c0-0.4-0.3-0.7-0.7-0.7c-0.6,0-1.1-0.5-1.1-1.1
	c0-0.6,0.5-1.1,1.1-1.1c0.3,0,0.6,0.1,0.8,0.3c0.1,0.1,0.3,0.2,0.5,0.2h0c0.2,0,0.4-0.1,0.5-0.2l1.9-1.9
	C20.9,12.2,20.9,11.8,20.6,11.5z M6.8,18.9H3.6v-1.4c1.1-0.3,1.8-1.3,1.8-2.4c0-1.2-0.8-2.1-1.8-2.4v-1.4h2.6c0,0,0,0,0,0h0.5
	C6.8,11.3,6.8,18.9,6.8,18.9z M11.5,18.9H8.2v-7.6h3.3V18.9z M16.1,12.7c-1.1,0.3-1.8,1.3-1.8,2.4s0.8,2.1,1.8,2.4v1.4h-3.2v-7.6
	h3.2V12.7z M16.9,9.9H6.5L4.9,8.2l1-0.9c0.4,0.2,0.8,0.3,1.3,0.3c1.4,0,2.5-1.1,2.5-2.5c0-0.4-0.1-0.8-0.3-1.2l1-0.9l6.8,7
	C17,9.9,16.9,9.9,16.9,9.9z M18.1,12.9c-0.2-0.1-0.3-0.2-0.5-0.2v-2.1c0-0.1,0-0.2,0-0.2l1.6,1.6L18.1,12.9z M9.7,13.6H10
	c0.4,0,0.7-0.3,0.7-0.7c0-0.4-0.3-0.7-0.7-0.7H9.7c-0.4,0-0.7,0.3-0.7,0.7C8.9,13.3,9.3,13.6,9.7,13.6z M9.7,15.8H10
	c0.4,0,0.7-0.3,0.7-0.7c0-0.4-0.3-0.7-0.7-0.7H9.7c-0.4,0-0.7,0.3-0.7,0.7C8.9,15.5,9.3,15.8,9.7,15.8z M9.7,18.1H10
	c0.4,0,0.7-0.3,0.7-0.7s-0.3-0.7-0.7-0.7H9.7c-0.4,0-0.7,0.3-0.7,0.7C8.9,17.8,9.3,18.1,9.7,18.1z"/>
</svg>
