<?xml version="1.0" encoding="utf-8"?>
<!-- Generator: Adobe Illustrator 20.1.0, SVG Export Plug-In . SVG Version: 6.00 Build 0)  -->
<svg version="1.1" id="Layer_1" xmlns="http://www.w3.org/2000/svg" xmlns:xlink="http://www.w3.org/1999/xlink" x="0px" y="0px"
	 viewBox="0 0 837 312.5" style="enable-background:new 0 0 837 312.5;" xml:space="preserve">
<style type="text/css">
	.st0{display:none;}
	.st1{display:inline;fill:none;}
	.st2{display:inline;fill:#068264;}
	.st3{display:inline;fill:#5CBE7E;}
	.st4{fill:none;}
	.st5{fill:#5CBE7E;}
	.st6{fill:#068264;}
	.st7{fill:#47525D;}
</style>
<g id="XMLID_32_" class="st0">
	<path class="st1" d="M391.3,322.3c2.2,2.2,5.7,2.2,7.9,0l0,0c2.2-2.2,2.2-5.7,0-7.9l-3.2-3.2c-2.2-2.2-5.7-2.2-7.9,0l0,0
		c-2.2,2.2-2.2,5.7,0,7.9L391.3,322.3z"/>
	<path class="st1" d="M362.2,293.2c2.2,2.2,5.7,2.2,7.9,0l0,0c2.2-2.2,2.2-5.7,0-7.9l-3.2-3.2c-2.2-2.2-5.7-2.2-7.9,0l0,0
		c-2.2,2.2-2.2,5.7,0,7.9L362.2,293.2z"/>
	<path class="st1" d="M323.4,238.5c-2.2-2.2-5.7-2.2-7.9,0l0,0c-2.2,2.2-2.2,5.7,0,7.9l3.2,3.2c2.2,2.2,5.7,2.2,7.9,0l0,0
		c2.2-2.2,2.2-5.7,0-7.9L323.4,238.5z"/>
	<path class="st1" d="M376.8,307.8c2.2,2.2,5.7,2.2,7.9,0l0,0c2.2-2.2,2.2-5.7,0-7.9l-3.2-3.2c-2.2-2.2-5.7-2.2-7.9,0l0,0
		c-2.2,2.2-2.2,5.7,0,7.9L376.8,307.8z"/>
	<path class="st1" d="M354.6,350.7c0-5-1.8-9.3-5.4-12.9L245.5,234.1c-3.4-3.4-7.8-5.2-12.9-5.2c-5.2,0-9.5,1.7-12.9,5.2L87,366.8
		c-3.6,3.6-5.4,7.9-5.4,12.9s1.8,9.3,5.4,12.9l37,37h22.4l-48.9-48.9l136.1-136.1l105.2,105.2L259,429.6h24.4l66-66
		C352.7,360,354.6,355.7,354.6,350.7z"/>
	<path class="st1" d="M308.9,224c-2.2-2.2-5.7-2.2-7.9,0l0,0c-2.2,2.2-2.2,5.7,0,7.9l3.2,3.2c2.2,2.2,5.7,2.2,7.9,0l0,0
		c2.2-2.2,2.2-5.7,0-7.9L308.9,224z"/>
	<path class="st1" d="M279.9,194.9c-2.2-2.2-5.7-2.2-7.9,0l0,0c-2.2,2.2-2.2,5.7,0,7.9l3.2,3.2c2.2,2.2,5.7,2.2,7.9,0l0,0
		c2.2-2.2,2.2-5.7,0-7.9L279.9,194.9z"/>
	<path class="st1" d="M347.8,278.7c2.2,2.2,5.7,2.2,7.9,0l0,0c2.2-2.2,2.2-5.7,0-7.9l-3.2-3.2c-2.2-2.2-5.7-2.2-7.9,0
		c-2.2,2.2-2.2,5.7,0,7.9L347.8,278.7z"/>
	<path class="st1" d="M294.3,209.4c-2.2-2.2-5.7-2.2-7.9,0l0,0c-2.2,2.2-2.2,5.7,0,7.9l3.2,3.2c2.2,2.2,5.7,2.2,7.9,0l0,0
		c2.2-2.2,2.2-5.7,0-7.9L294.3,209.4z"/>
	<path class="st1" d="M405.8,336.8c2.2,2.2,5.7,2.2,7.9,0l0,0c2.2-2.2,2.2-5.7,0-7.9l-3.2-3.2c-2.2-2.2-5.7-2.2-7.9,0l0,0
		c-2.2,2.2-2.2,5.7,0,7.9L405.8,336.8z"/>
	<path class="st1" d="M260.6,191.6c2.2,2.2,5.7,2.2,7.9,0l0,0c2.2-2.2,2.2-5.7,0-7.9l-3.2-3.2c-2.2-2.2-5.7-2.2-7.9,0l0,0
		c-2.2,2.2-2.2,5.7,0,7.9L260.6,191.6z"/>
	<path class="st1" d="M330,253L330,253c-2.2,2.2-2.2,5.7,0,7.9l3.2,3.2c2.2,2.2,5.7,2.2,7.9,0l0,0c2.2-2.2,2.2-5.7,0-7.9l-3.2-3.2
		C335.7,250.8,332.2,250.8,330,253z"/>
	<path class="st1" d="M246.1,177.1c2.2,2.2,5.7,2.2,7.9,0l0,0c2.2-2.2,2.2-5.7,0-7.9l-3.2-3.2c-2.2-2.2-5.7-2.2-7.9,0l0,0
		c-2.2,2.2-2.2,5.7,0,7.9L246.1,177.1z"/>
	<path class="st1" d="M298,185.3c1.2,1.2,3.2,1.2,4.4,0l34.8-34.8c1.2-1.2,1.2-3.2,0-4.4l-34.8-34.8c-1.2-1.2-3.2-1.2-4.4,0
		l-34.8,34.8c-1.2,1.2-1.2,3.2,0,4.4L298,185.3z M299.8,124.1l23.8,23.8l-23.8,23.8L276,147.9L299.8,124.1z"/>
	<polygon class="st2" points="338.6,349.8 233.4,244.6 97.3,380.7 146.2,429.6 258.8,429.6 	"/>
	
		<rect x="282.9" y="131.1" transform="matrix(0.7071 -0.7071 0.7071 0.7071 -16.8079 255.3078)" class="st2" width="33.7" height="33.7"/>
	<path class="st3" d="M86.9,392.6c-3.6-3.6-5.4-7.9-5.4-12.9s1.8-9.3,5.4-12.9l132.7-132.7c3.4-3.4,7.7-5.2,12.9-5.2
		c5.1,0,9.5,1.7,12.9,5.2l103.7,103.7c3.6,3.6,5.4,7.9,5.4,12.9s-1.8,9.3-5.4,12.9l-66,66h72.5l71.5-71.5l-6.7-6.7l-3.2-3.2l0,0
		c-0.4-0.4-0.7-0.9-1-1.4c-0.5-1-0.7-2.1-0.6-3.1c0.1-1.3,0.7-2.5,1.6-3.4l0,0c2.2-2.2,5.7-2.2,7.9,0l3.2,3.2l6.7,6.7l36.4-36.4
		c1.1-1.1,1.2-3,0.2-4.2c-12.8-14.7-12.9-36.8-0.2-51.5c1.1-1.2,1-3.1-0.2-4.2L301.7,84.3c-1.2-1.2-3.2-1.2-4.4,0l-64.1,64l6.3,6.3
		c2.2,2.2,2.2,5.7,0,7.9l0,0c-2.2,2.2-5.7,2.2-7.9,0l-6.3-6.3L22.8,358.6c-1.1,1.1-1.2,3-0.2,4.2c12.7,14.7,12.7,36.6,0,51.3
		c-1.1,1.2-1,3,0.2,4.2L34,429.5h89.9L86.9,392.6z M283.1,206.1L283.1,206.1c-2.2,2.2-5.7,2.2-7.9,0l-3.2-3.2
		c-2.2-2.2-2.2-5.7,0-7.9l0,0c2.2-2.2,5.7-2.2,7.9,0l3.2,3.2C285.3,200.4,285.3,203.9,283.1,206.1z M297.6,220.6L297.6,220.6
		c-2.2,2.2-5.7,2.2-7.9,0l-3.2-3.2c-2.2-2.2-2.2-5.7,0-7.9l0,0c2.2-2.2,5.7-2.2,7.9,0l3.2,3.2C299.8,214.8,299.8,218.4,297.6,220.6z
		 M312.1,235.1L312.1,235.1c-2.2,2.2-5.7,2.2-7.9,0l-3.2-3.2c-2.2-2.2-2.2-5.7,0-7.9l0,0c2.2-2.2,5.7-2.2,7.9,0l3.2,3.2
		C314.3,229.4,314.3,232.9,312.1,235.1z M326.7,249.7L326.7,249.7c-2.2,2.2-5.7,2.2-7.9,0l-3.2-3.2c-2.2-2.2-2.2-5.7,0-7.9l0,0
		c2.2-2.2,5.7-2.2,7.9,0l3.2,3.2C328.9,243.9,328.9,247.5,326.7,249.7z M402.6,325.6L402.6,325.6c2.2-2.2,5.7-2.2,7.9,0l3.2,3.2
		c2.2,2.2,2.2,5.7,0,7.9l0,0c-2.2,2.2-5.7,2.2-7.9,0l-3.2-3.2C400.4,331.4,400.4,327.8,402.6,325.6z M388.1,311.1L388.1,311.1
		c2.2-2.2,5.7-2.2,7.9,0l3.2,3.2c2.2,2.2,2.2,5.7,0,7.9l0,0c-2.2,2.2-5.7,2.2-7.9,0l-3.2-3.2C385.9,316.9,385.9,313.3,388.1,311.1z
		 M373.6,296.6L373.6,296.6c2.2-2.2,5.7-2.2,7.9,0l3.2,3.2c2.2,2.2,2.2,5.7,0,7.9l0,0c-2.2,2.2-5.7,2.2-7.9,0l-3.2-3.2
		C371.4,302.3,371.4,298.8,373.6,296.6z M359,282.1L359,282.1c2.2-2.2,5.7-2.2,7.9,0l3.2,3.2c2.2,2.2,2.2,5.7,0,7.9l0,0
		c-2.2,2.2-5.7,2.2-7.9,0L359,290C356.8,287.8,356.8,284.2,359,282.1z M344.5,267.6c2.2-2.2,5.7-2.2,7.9,0l3.2,3.2
		c2.2,2.2,2.2,5.7,0,7.9l0,0c-2.2,2.2-5.7,2.2-7.9,0l-3.2-3.2C342.3,273.3,342.3,269.8,344.5,267.6z M341.2,264.2L341.2,264.2
		c-2.2,2.2-5.7,2.2-7.9,0l-3.2-3.2c-2.2-2.2-2.2-5.7,0-7.9l0,0c2.2-2.2,5.7-2.2,7.9,0l3.2,3.2C343.3,258.4,343.3,262,341.2,264.2z
		 M263.2,146.1l34.8-34.8c1.2-1.2,3.2-1.2,4.4,0l34.8,34.8c1.2,1.2,1.2,3.2,0,4.4l-34.8,34.8c-1.2,1.2-3.2,1.2-4.4,0l-34.8-34.9
		C262,149.2,262,147.3,263.2,146.1z M257.4,180.4L257.4,180.4c2.2-2.2,5.7-2.2,7.9,0l3.2,3.2c2.2,2.2,2.2,5.7,0,7.9l0,0
		c-2.2,2.2-5.7,2.2-7.9,0l-3.2-3.2C255.2,186.1,255.2,182.6,257.4,180.4z M242.9,165.9L242.9,165.9c2.2-2.2,5.7-2.2,7.9,0l3.2,3.2
		c2.2,2.2,2.2,5.7,0,7.9l0,0c-2.2,2.2-5.7,2.2-7.9,0l-3.2-3.2C240.7,171.7,240.7,168.1,242.9,165.9z"/>
	<line class="st1" x1="355.6" y1="429.6" x2="283.1" y2="429.6"/>
</g>
<g>
	<g>
		<path class="st4" d="M185.1,194.7l-2.1-2.1c-1.4-1.4-3.7-1.4-5.1,0s-1.4,3.7,0,5.1l2.1,2.1c1.4,1.4,3.7,1.4,5.1,0
			S186.5,196.1,185.1,194.7z"/>
		<path class="st4" d="M173.7,183.4c-1.4-1.4-3.7-1.4-5.1,0s-1.4,3.6,0,5.1l2.1,2.1c1.4,1.4,3.7,1.4,5.1,0c1.4-1.4,1.4-3.7,0-5.1
			L173.7,183.4z"/>
		<path class="st4" d="M192.3,201.9c-1.4-1.4-3.7-1.4-5.1,0s-1.4,3.7,0,5.1l2.1,2.1c1.4,1.4,3.7,1.4,5.1,0s1.4-3.7,0-5.1
			L192.3,201.9z"/>
		<path class="st4" d="M194.7,186.4c0.7,0.7,2.1,0.7,2.8,0l22.3-22.3c0.7-0.7,0.7-2.1,0-2.8l-22.3-22.3c-0.7-0.7-2.1-0.7-2.8,0
			l-22.3,22.3c-0.8,0.8-0.8,2.1,0,2.8L194.7,186.4z"/>
		<path class="st4" d="M201.7,211.3c-1.4-1.4-3.7-1.4-5.1,0s-1.4,3.7,0,5.1l2.1,2.1c1.4,1.4,3.7,1.4,5.1,0s1.4-3.7,0-5.1
			L201.7,211.3z"/>
		<path class="st4" d="M166.5,176.1l-2.1-2.1c-1.4-1.4-3.7-1.4-5.1,0c-1.4,1.4-1.4,3.7,0,5.1l2.1,2.1c1.4,1.4,3.7,1.4,5.1,0
			S167.9,177.5,166.5,176.1z"/>
		<path class="st4" d="M229.6,239.3c-1.4-1.4-3.7-1.4-5.1,0s-1.4,3.7,0,5.1l2.1,2.1c1.4,1.4,3.7,1.4,5.1,0s1.4-3.7,0-5.1
			L229.6,239.3z"/>
		<path class="st4" d="M269.1,278.7l-2.1-2.1c-1.4-1.4-3.7-1.4-5.1,0c-1.4,1.4-1.4,3.7,0,5.1l2.1,2.1c1.4,1.4,3.7,1.4,5.1,0
			C270.5,282.4,270.5,280.1,269.1,278.7z"/>
		<path class="st4" d="M257.7,267.3c-1.4-1.4-3.7-1.4-5.1,0c-1.4,1.4-1.4,3.7,0,5.1l2.1,2.1c1.4,1.4,3.7,1.4,5.1,0
			c1.4-1.4,1.4-3.7,0-5.1L257.7,267.3z"/>
		<path class="st4" d="M-4,312.5h27.6c-0.8-4.3-2.7-8.5-5.7-12c-0.7-0.8-0.6-1.9,0.1-2.7l130-129.9l4.1,4.1c1.4,1.4,3.7,1.4,5.1,0
			s1.4-3.7,0-5.1l-4.1-4.1l41.1-41.1c0.7-0.7,2.1-0.7,2.8,0l108.9,108.9c0.7,0.7,0.8,1.9,0.1,2.7c-8.2,9.4-8.1,23.6,0.1,33.1
			c0.7,0.8,0.6,1.9-0.2,2.7l-23.3,23.3l-4.4-4.4l-2.1-2.1c-1.4-1.4-3.7-1.4-5.1,0c-0.6,0.7-0.9,1.4-1,2.2c-0.1,0.7,0.1,1.3,0.4,2
			c0.2,0.3,0.4,0.6,0.7,0.9l2.1,2.1l4.4,4.4l-15.1,15.1H324v-209H-4"/>
		<path class="st4" d="M213.1,222.7l-2.1-2.1c-1.4-1.4-3.7-1.4-5.1,0s-1.4,3.7,0,5.1l2.1,2.1c1.4,1.4,3.7,1.4,5.1,0
			S214.5,224.1,213.1,222.7z"/>
		<path class="st4" d="M248.3,258c-1.4-1.4-3.7-1.4-5.1,0c-1.4,1.4-1.4,3.7,0,5.1l2.1,2.1c1.4,1.4,3.7,1.4,5.1,0s1.4-3.7,0-5.1
			L248.3,258z"/>
		<path class="st4" d="M220.3,230c-1.4-1.4-3.7-1.4-5.1,0s-1.4,3.7,0,5.1l2.1,2.1c1.4,1.4,3.7,1.4,5.1,0s1.4-3.7,0-5.1L220.3,230z"
			/>
		<path class="st4" d="M239,248.6c-1.4-1.4-3.7-1.4-5.1,0s-1.4,3.7,0,5.1l2.1,2.1c1.4,1.4,3.7,1.4,5.1,0c1.4-1.4,1.4-3.7,0-5.1
			L239,248.6z"/>
		<path class="st5" d="M273.3,293.1l-2.1-2.1c-0.3-0.3-0.5-0.5-0.7-0.9c-0.3-0.7-0.5-1.3-0.4-2c0.1-0.8,0.4-1.5,1-2.2
			c1.4-1.4,3.7-1.4,5.1,0l2.1,2.1l4.4,4.4L306,269c0.8-0.7,0.9-1.9,0.2-2.7c-8.2-9.5-8.3-23.7-0.1-33.1c0.7-0.7,0.6-1.9-0.1-2.7
			L197,121.7c-0.7-0.7-2.1-0.7-2.8,0l-41.1,41.1l4.1,4.1c1.4,1.4,1.4,3.7,0,5.1c-1.4,1.4-3.7,1.4-5.1,0l-4.1-4.1L18,297.8
			c-0.7,0.7-0.8,1.9-0.1,2.7c3,3.5,4.9,7.7,5.7,12h32.1c0-0.4-0.1-0.7-0.1-1.1c0-3.2,1.2-6,3.5-8.3l85.2-85.2c2.2-2.2,5-3.3,8.3-3.3
			c3.2,0,6.1,1.1,8.3,3.3l66.5,66.5c2.4,2.4,3.5,5,3.5,8.3s-1.2,6-3.6,8.3l-11.6,11.6h46.6l15.1-15.1L273.3,293.1z M172.4,161.3
			l22.3-22.3c0.7-0.7,2.1-0.7,2.8,0l22.3,22.3c0.7,0.7,0.7,2.1,0,2.8l-22.3,22.3c-0.7,0.7-2.1,0.7-2.8,0l-22.3-22.3
			C171.6,163.3,171.6,162.1,172.4,161.3z M161.4,181.2l-2.1-2.1c-1.4-1.4-1.4-3.7,0-5.1c1.4-1.4,3.7-1.4,5.1,0l2.1,2.1
			c1.4,1.4,1.4,3.7,0,5.1S162.8,182.6,161.4,181.2z M175.8,190.6c-1.4,1.4-3.7,1.4-5.1,0l-2.1-2.1c-1.4-1.5-1.4-3.7,0-5.1
			s3.7-1.4,5.1,0l2.1,2.1C177.2,186.9,177.2,189.2,175.8,190.6z M180,199.8l-2.1-2.1c-1.4-1.4-1.4-3.7,0-5.1s3.7-1.4,5.1,0l2.1,2.1
			c1.4,1.4,1.4,3.7,0,5.1S181.4,201.3,180,199.8z M194.4,209.1c-1.4,1.4-3.7,1.4-5.1,0l-2.1-2.1c-1.4-1.4-1.4-3.7,0-5.1
			c1.4-1.4,3.7-1.4,5.1,0l2.1,2.1C195.8,205.4,195.8,207.7,194.4,209.1z M203.7,218.5c-1.4,1.4-3.7,1.4-5.1,0l-2.1-2.1
			c-1.4-1.4-1.4-3.7,0-5.1s3.7-1.4,5.1,0l2.1,2.1C205.2,214.8,205.2,217.1,203.7,218.5z M208,227.8l-2.1-2.1c-1.4-1.4-1.4-3.7,0-5.1
			s3.7-1.4,5.1,0l2.1,2.1c1.4,1.4,1.4,3.7,0,5.1S209.4,229.2,208,227.8z M222.4,237.1c-1.4,1.4-3.7,1.4-5.1,0l-2.1-2.1
			c-1.4-1.4-1.4-3.7,0-5.1s3.7-1.4,5.1,0l2.1,2.1C223.8,233.5,223.8,235.7,222.4,237.1z M231.7,246.5c-1.4,1.4-3.7,1.4-5.1,0
			l-2.1-2.1c-1.4-1.4-1.4-3.7,0-5.1s3.7-1.4,5.1,0l2.1,2.1C233.1,242.8,233.1,245.1,231.7,246.5z M241.1,255.8
			c-1.4,1.4-3.7,1.4-5.1,0l-2.1-2.1c-1.4-1.4-1.4-3.7,0-5.1s3.7-1.4,5.1,0l2.1,2.1C242.5,252.1,242.5,254.4,241.1,255.8z
			 M250.4,265.2c-1.4,1.4-3.7,1.4-5.1,0l-2.1-2.1c-1.4-1.4-1.4-3.7,0-5.1c1.4-1.4,3.7-1.4,5.1,0l2.1,2.1
			C251.8,261.5,251.8,263.8,250.4,265.2z M259.7,274.5c-1.4,1.4-3.7,1.4-5.1,0l-2.1-2.1c-1.4-1.4-1.4-3.7,0-5.1
			c1.4-1.4,3.7-1.4,5.1,0l2.1,2.1C261.2,270.8,261.2,273.1,259.7,274.5z M264,283.8l-2.1-2.1c-1.4-1.4-1.4-3.7,0-5.1
			c1.4-1.4,3.7-1.4,5.1,0l2.1,2.1c1.4,1.4,1.4,3.7,0,5.1C267.7,285.2,265.4,285.2,264,283.8z"/>
	</g>
	<polygon class="st6" points="153.5,224.2 66.2,311.6 66.8,312.2 200.7,312.2 221,291.8 	"/>
	
		<rect x="185.3" y="151.5" transform="matrix(0.7071 -0.7071 0.7071 0.7071 -57.3029 186.2355)" class="st6" width="21.6" height="21.6"/>
</g>
<g>
	<path class="st7" d="M413.2,179.7h-43.6v-15.4h105.6v15.4h-43.6v128.9h-18.5V179.7z"/>
	<path class="st7" d="M508.6,179.7c-3.5,0-6.5-1.1-8.9-3.3s-3.6-5-3.6-8.4c0-3.5,1.2-6.3,3.6-8.5c2.4-2.1,5.4-3.2,8.9-3.2
		c3.5,0,6.5,1.1,8.9,3.2c2.4,2.1,3.6,5,3.6,8.5c0,3.4-1.2,6.2-3.6,8.4C515.1,178.6,512.2,179.7,508.6,179.7z M499.4,201.7h18v106.9
		h-18V201.7z"/>
	<path class="st7" d="M545.6,255.4c0-8.9,1.4-16.9,4.2-23.9c2.8-7,6.5-12.9,11.2-17.7c4.7-4.8,10.2-8.5,16.4-11
		c6.2-2.5,12.8-3.7,19.7-3.7c7,0,13.1,1.3,18.2,3.8c5.1,2.6,9.4,5.5,13.1,8.9l-9,11.7c-3.2-2.8-6.6-5.1-10-6.8
		c-3.4-1.8-7.3-2.6-11.5-2.6c-4.8,0-9.3,1-13.4,3c-4.1,2-7.6,4.8-10.6,8.5c-2.9,3.7-5.2,8-6.9,13.1c-1.7,5.1-2.5,10.7-2.5,16.8
		c0,6.2,0.8,11.7,2.4,16.7c1.6,5,3.8,9.3,6.7,12.9c2.9,3.6,6.3,6.4,10.5,8.4c4.1,2,8.6,3,13.4,3c5.1,0,9.8-1.1,14-3.2
		c4.2-2.1,7.9-4.7,11.1-7.6l8.1,11.9c-4.8,4.3-10.2,7.6-16.2,10.1c-5.9,2.5-12.1,3.7-18.6,3.7c-7,0-13.6-1.2-19.8-3.7
		c-6.2-2.5-11.5-6.1-16-10.9c-4.5-4.8-8-10.6-10.6-17.6C546.9,272.1,545.6,264.2,545.6,255.4z"/>
	<path class="st7" d="M653.8,152h17.8v106h0.7l45.5-56.3h20L702,244.6l40.7,64h-19.8l-31.2-51.5l-20,23.3v28.2h-17.8V152z"/>
	<path class="st7" d="M762.7,201.7h15l1.5,19.4h0.7c3.7-6.7,8.1-12.1,13.3-16.1c5.2-4,10.9-5.9,17-5.9c4.3,0,8.1,0.7,11.4,2.2
		l-3.5,15.8c-1.8-0.6-3.4-1-4.8-1.3c-1.5-0.3-3.3-0.4-5.5-0.4c-4.5,0-9.3,1.8-14.2,5.5c-4.9,3.7-9.2,10-12.9,19.1v68.6h-18V201.7z"
		/>
</g>
</svg>
